<svg width="2158" height="299" viewBox="0 0 2158 299" fill="none" xmlns="http://www.w3.org/2000/svg">
<path d="M56.8081 128.207V123.677L71.0123 107.542H58.413V103.334H78.2066V107.237L63.3937 124.016H78.7784V128.207H56.8081Z" fill="#D51F39"/>
<path d="M145.121 119.902L150.436 119.426C150.756 121.068 151.402 122.275 152.374 123.045C153.358 123.815 154.681 124.2 156.342 124.2C158.101 124.2 159.424 123.86 160.31 123.181C161.208 122.49 161.657 121.686 161.657 120.768C161.657 120.179 161.466 119.681 161.085 119.273C160.716 118.854 160.064 118.492 159.129 118.186C158.489 117.982 157.031 117.619 154.755 117.098C151.827 116.43 149.772 115.609 148.591 114.635C146.93 113.264 146.099 111.594 146.099 109.623C146.099 108.354 146.487 107.171 147.262 106.072C148.049 104.962 149.175 104.118 150.639 103.541C152.116 102.963 153.894 102.674 155.973 102.674C159.369 102.674 161.922 103.359 163.632 104.73C165.354 106.1 166.259 107.93 166.345 110.218L160.882 110.438C160.648 109.159 160.144 108.241 159.369 107.686C158.606 107.12 157.455 106.837 155.917 106.837C154.33 106.837 153.088 107.137 152.189 107.737C151.611 108.122 151.322 108.638 151.322 109.283C151.322 109.872 151.593 110.376 152.134 110.795C152.823 111.328 154.496 111.883 157.154 112.46C159.812 113.038 161.774 113.638 163.041 114.261C164.321 114.873 165.317 115.717 166.031 116.793C166.757 117.857 167.12 119.177 167.12 120.751C167.12 122.178 166.689 123.515 165.828 124.761C164.967 126.007 163.749 126.935 162.174 127.547C160.599 128.147 158.637 128.448 156.287 128.448C152.866 128.448 150.239 127.723 148.406 126.273C146.573 124.812 145.478 122.688 145.121 119.902V119.902Z" fill="#D51F39"/>
<path d="M59.6187 203.945V178.803H79.2491V183.057H64.9642V188.63H78.2558V192.866H64.9642V199.709H79.7547V203.945H59.6187Z" fill="#D51F39"/>
<path fill-rule="evenodd" clip-rule="evenodd" d="M112.084 62.7675C65.0599 62.7675 26.7081 102.011 26.7081 150.131C26.7081 198.252 65.0599 237.495 112.084 237.495C159.111 237.495 197.463 198.252 197.463 150.131C197.463 102.011 159.111 62.7675 112.084 62.7675ZM129.434 45.8657C145.02 48.5809 159.437 54.8794 171.837 63.9105L178.989 56.5922L203.525 81.699L196.367 89.0227C205.195 101.725 211.347 116.492 213.991 132.458H224V167.962H213.964C211.298 183.922 205.119 198.684 196.273 211.373L203.404 218.67L178.869 243.777L171.705 236.445C159.29 245.457 144.859 251.734 129.265 254.423V264.73H94.5666V254.367C79.002 251.628 64.6048 245.312 52.2265 236.271L45.0121 243.653L20.4764 218.548L27.7278 211.128C18.9391 198.449 12.8124 183.712 10.1769 167.789H0V132.283H10.2081C12.8696 116.369 19.0217 101.645 27.8315 88.9794L20.5965 81.5757L45.1322 56.47L52.3744 63.8813C64.7645 54.8665 79.1676 48.5787 94.7359 45.8657V35.5166H129.434V45.8657" fill="#5F91CF"/>
<path d="M164.862 171.874L138.92 208.827" stroke="#E41E25" stroke-width="2" stroke-miterlimit="22.9256"/>
<path d="M141.432 194.165L151.79 201.996" stroke="#E41E25" stroke-width="2" stroke-miterlimit="22.9256"/>
<path fill-rule="evenodd" clip-rule="evenodd" d="M151.518 176.553L146.106 198.611L165.515 187.057L151.518 176.553Z" fill="#D51F39"/>
<path fill-rule="evenodd" clip-rule="evenodd" d="M167.412 -2.0123e-06L167.888 16.7451L195.833 4.02569L96.444 147.847H147.722L62.0891 267.189L69.1906 271.729L38.9053 298.667L48.4442 258.799L54.9488 263.039L118.92 160.217H75.9419L167.412 -2.0123e-06" fill="#D51F39"/>
<path d="M1547.94 102.753V113.113H1505.52V146.013H1539.96V156.373H1505.52V200.333H1492.78V102.753H1547.94ZM1558.57 161.693C1558.57 153.853 1560.15 146.993 1563.33 141.113C1566.5 135.14 1570.84 130.52 1576.35 127.253C1581.95 123.987 1588.15 122.353 1594.97 122.353C1601.69 122.353 1607.52 123.8 1612.47 126.693C1617.41 129.587 1621.1 133.227 1623.53 137.613V123.613H1636.41V200.333H1623.53V186.053C1621.01 190.533 1617.23 194.267 1612.19 197.253C1607.24 200.147 1601.45 201.593 1594.83 201.593C1588.01 201.593 1581.85 199.913 1576.35 196.553C1570.84 193.193 1566.5 188.48 1563.33 182.413C1560.15 176.347 1558.57 169.44 1558.57 161.693ZM1623.53 161.833C1623.53 156.047 1622.36 151.007 1620.03 146.713C1617.69 142.42 1614.52 139.153 1610.51 136.913C1606.59 134.58 1602.25 133.413 1597.49 133.413C1592.73 133.413 1588.39 134.533 1584.47 136.773C1580.55 139.013 1577.42 142.28 1575.09 146.573C1572.75 150.867 1571.59 155.907 1571.59 161.693C1571.59 167.573 1572.75 172.707 1575.09 177.093C1577.42 181.387 1580.55 184.7 1584.47 187.033C1588.39 189.273 1592.73 190.393 1597.49 190.393C1602.25 190.393 1606.59 189.273 1610.51 187.033C1614.52 184.7 1617.69 181.387 1620.03 177.093C1622.36 172.707 1623.53 167.62 1623.53 161.833ZM1670.68 136.073C1672.92 131.687 1676.09 128.28 1680.2 125.853C1684.4 123.427 1689.48 122.213 1695.46 122.213V135.373H1692.1C1677.82 135.373 1670.68 143.12 1670.68 158.613V200.333H1657.94V123.613H1670.68V136.073ZM1743.62 201.593C1736.44 201.593 1729.9 199.96 1724.02 196.693C1718.24 193.427 1713.66 188.807 1710.3 182.833C1707.04 176.767 1705.4 169.767 1705.4 161.833C1705.4 153.993 1707.08 147.087 1710.44 141.113C1713.9 135.047 1718.56 130.427 1724.44 127.253C1730.32 123.987 1736.9 122.353 1744.18 122.353C1751.46 122.353 1758.04 123.987 1763.92 127.253C1769.8 130.427 1774.42 135 1777.78 140.973C1781.24 146.947 1782.96 153.9 1782.96 161.833C1782.96 169.767 1781.19 176.767 1777.64 182.833C1774.19 188.807 1769.48 193.427 1763.5 196.693C1757.53 199.96 1750.9 201.593 1743.62 201.593ZM1743.62 190.393C1748.2 190.393 1752.49 189.32 1756.5 187.173C1760.52 185.027 1763.74 181.807 1766.16 177.513C1768.68 173.22 1769.94 167.993 1769.94 161.833C1769.94 155.673 1768.73 150.447 1766.3 146.153C1763.88 141.86 1760.7 138.687 1756.78 136.633C1752.86 134.487 1748.62 133.413 1744.04 133.413C1739.38 133.413 1735.08 134.487 1731.16 136.633C1727.34 138.687 1724.26 141.86 1721.92 146.153C1719.59 150.447 1718.42 155.673 1718.42 161.833C1718.42 168.087 1719.54 173.36 1721.78 177.653C1724.12 181.947 1727.2 185.167 1731.02 187.313C1734.85 189.367 1739.05 190.393 1743.62 190.393Z" fill="#006130"/>
<path d="M1839.84 178.213C1848.8 170.747 1855.94 164.54 1861.26 159.593C1866.58 154.553 1871.01 149.327 1874.56 143.913C1878.1 138.5 1879.88 133.18 1879.88 127.953C1879.88 123.193 1878.76 119.46 1876.52 116.753C1874.28 114.047 1870.82 112.693 1866.16 112.693C1861.49 112.693 1857.9 114.28 1855.38 117.453C1852.86 120.533 1851.55 124.78 1851.46 130.193H1832.42C1832.79 118.993 1836.1 110.5 1842.36 104.713C1848.7 98.9268 1856.73 96.0334 1866.44 96.0334C1877.08 96.0334 1885.24 98.8801 1890.94 104.573C1896.63 110.173 1899.48 117.593 1899.48 126.833C1899.48 134.113 1897.52 141.067 1893.6 147.693C1889.68 154.32 1885.2 160.107 1880.16 165.053C1875.12 169.907 1868.54 175.787 1860.42 182.693H1901.72V198.933H1832.56V184.373L1839.84 178.213ZM1914.07 147.973C1914.07 131.827 1916.96 119.18 1922.75 110.033C1928.63 100.887 1938.34 96.3134 1951.87 96.3134C1965.4 96.3134 1975.06 100.887 1980.85 110.033C1986.73 119.18 1989.67 131.827 1989.67 147.973C1989.67 164.213 1986.73 176.953 1980.85 186.193C1975.06 195.433 1965.4 200.053 1951.87 200.053C1938.34 200.053 1928.63 195.433 1922.75 186.193C1916.96 176.953 1914.07 164.213 1914.07 147.973ZM1970.35 147.973C1970.35 141.067 1969.88 135.28 1968.95 130.613C1968.11 125.853 1966.34 121.98 1963.63 118.993C1961.02 116.007 1957.1 114.513 1951.87 114.513C1946.64 114.513 1942.68 116.007 1939.97 118.993C1937.36 121.98 1935.58 125.853 1934.65 130.613C1933.81 135.28 1933.39 141.067 1933.39 147.973C1933.39 155.067 1933.81 161.04 1934.65 165.893C1935.49 170.653 1937.26 174.527 1939.97 177.513C1942.68 180.407 1946.64 181.853 1951.87 181.853C1957.1 181.853 1961.06 180.407 1963.77 177.513C1966.48 174.527 1968.25 170.653 1969.09 165.893C1969.93 161.04 1970.35 155.067 1970.35 147.973ZM2010.74 178.213C2019.7 170.747 2026.84 164.54 2032.16 159.593C2037.48 154.553 2041.91 149.327 2045.46 143.913C2049 138.5 2050.78 133.18 2050.78 127.953C2050.78 123.193 2049.66 119.46 2047.42 116.753C2045.18 114.047 2041.72 112.693 2037.06 112.693C2032.39 112.693 2028.8 114.28 2026.28 117.453C2023.76 120.533 2022.45 124.78 2022.36 130.193H2003.32C2003.69 118.993 2007 110.5 2013.26 104.713C2019.6 98.9268 2027.63 96.0334 2037.34 96.0334C2047.98 96.0334 2056.14 98.8801 2061.84 104.573C2067.53 110.173 2070.38 117.593 2070.38 126.833C2070.38 134.113 2068.42 141.067 2064.5 147.693C2060.58 154.32 2056.1 160.107 2051.06 165.053C2046.02 169.907 2039.44 175.787 2031.32 182.693H2072.62V198.933H2003.46V184.373L2010.74 178.213ZM2091.13 178.213C2100.09 170.747 2107.23 164.54 2112.55 159.593C2117.87 154.553 2122.3 149.327 2125.85 143.913C2129.39 138.5 2131.17 133.18 2131.17 127.953C2131.17 123.193 2130.05 119.46 2127.81 116.753C2125.57 114.047 2122.11 112.693 2117.45 112.693C2112.78 112.693 2109.19 114.28 2106.67 117.453C2104.15 120.533 2102.84 124.78 2102.75 130.193H2083.71C2084.08 118.993 2087.39 110.5 2093.65 104.713C2099.99 98.9268 2108.02 96.0334 2117.73 96.0334C2128.37 96.0334 2136.53 98.8801 2142.23 104.573C2147.92 110.173 2150.77 117.593 2150.77 126.833C2150.77 134.113 2148.81 141.067 2144.89 147.693C2140.97 154.32 2136.49 160.107 2131.45 165.053C2126.41 169.907 2119.83 175.787 2111.71 182.693H2153.01V198.933H2083.85V184.373L2091.13 178.213Z" fill="#D40D05"/>
<path d="M761.035 200.635H691V94.3335H761.035V106.898H705.135V136.027H761.035V148.591H705.135V188.071H761.035V200.635" fill="#2765B2"/>
<path d="M826.626 135.527H825.913C823.914 135.051 821.975 134.707 820.095 134.492C818.214 134.277 815.989 134.17 813.42 134.17C809.279 134.17 805.281 135.087 801.426 136.918C797.57 138.752 793.858 141.119 790.289 144.023V200.635H776.868V120.891H790.289V132.671C795.619 128.388 800.319 125.353 804.389 123.568C808.458 121.785 812.609 120.891 816.846 120.891C819.178 120.891 820.868 120.952 821.915 121.071C822.961 121.188 824.531 121.416 826.626 121.747V135.527" fill="#2765B2"/>
<path d="M885.466 181.003V158.801C881.375 159.037 876.555 159.397 871.011 159.869C865.466 160.346 861.074 161.037 857.839 161.941C853.984 163.037 850.866 164.739 848.486 167.046C846.106 169.355 844.917 172.531 844.917 176.577C844.917 181.145 846.297 184.585 849.059 186.892C851.819 189.201 856.03 190.353 861.694 190.353C866.406 190.353 870.712 189.438 874.616 187.607C878.517 185.773 882.136 183.574 885.466 181.003V181.003ZM898.819 200.635H885.466V192.141C884.277 192.949 882.671 194.08 880.649 195.53C878.625 196.982 876.662 198.137 874.759 198.993C872.522 200.087 869.951 201.003 867.049 201.741C864.145 202.48 860.742 202.848 856.841 202.848C849.652 202.848 843.561 200.469 838.564 195.71C833.566 190.95 831.067 184.882 831.067 177.505C831.067 171.46 832.364 166.57 834.959 162.835C837.551 159.098 841.251 156.16 846.06 154.018C850.915 151.875 856.742 150.425 863.55 149.662C870.356 148.901 877.661 148.33 885.466 147.949V145.878C885.466 142.835 884.931 140.31 883.862 138.31C882.79 136.313 881.255 134.741 879.255 133.598C877.354 132.505 875.069 131.767 872.402 131.386C869.736 131.006 866.952 130.815 864.05 130.815C860.527 130.815 856.601 131.278 852.271 132.207C847.939 133.135 843.465 134.48 838.85 136.24H838.135V122.605C840.752 121.892 844.535 121.106 849.486 120.248C854.435 119.392 859.314 118.965 864.121 118.965C869.736 118.965 874.626 119.428 878.791 120.356C882.956 121.283 886.562 122.868 889.606 125.105C892.607 127.295 894.89 130.127 896.462 133.598C898.032 137.075 898.819 141.381 898.819 146.521V200.635" fill="#2765B2"/>
<path d="M976.543 177.646C976.543 184.929 973.533 190.904 967.513 195.566C961.489 200.231 953.269 202.563 942.846 202.563C936.944 202.563 931.531 201.86 926.604 200.456C921.68 199.052 917.549 197.52 914.219 195.852V180.788H914.931C919.168 183.977 923.879 186.511 929.068 188.391C934.255 190.273 939.229 191.211 943.989 191.211C949.89 191.211 954.506 190.261 957.836 188.356C961.169 186.452 962.835 183.455 962.835 179.36C962.835 176.221 961.931 173.84 960.122 172.221C958.312 170.605 954.839 169.223 949.7 168.081C947.795 167.654 945.31 167.154 942.239 166.582C939.17 166.011 936.373 165.392 933.85 164.726C926.855 162.868 921.893 160.146 918.965 156.552C916.038 152.958 914.575 148.545 914.575 143.307C914.575 140.023 915.254 136.931 916.609 134.028C917.966 131.125 920.024 128.53 922.785 126.247C925.449 124.008 928.84 122.236 932.959 120.927C937.075 119.618 941.68 118.965 946.773 118.965C951.531 118.965 956.35 119.548 961.228 120.712C966.106 121.88 970.164 123.296 973.401 124.961V139.311H972.688C969.26 136.79 965.095 134.658 960.193 132.922C955.29 131.183 950.486 130.315 945.774 130.315C940.871 130.315 936.731 131.255 933.353 133.135C929.97 135.017 928.281 137.812 928.281 141.523C928.281 144.807 929.304 147.282 931.353 148.947C933.353 150.615 936.586 151.972 941.062 153.017C943.535 153.588 946.309 154.16 949.378 154.731C952.449 155.302 955.005 155.827 957.054 156.301C963.286 157.73 968.094 160.18 971.475 163.655C974.854 167.177 976.543 171.841 976.543 177.646" fill="#2765B2"/>
<path d="M1107.16 200.635H1093.74V155.231C1093.74 151.804 1093.58 148.496 1093.27 145.307C1092.96 142.118 1092.31 139.572 1091.31 137.668C1090.21 135.622 1088.64 134.077 1086.6 133.027C1084.55 131.982 1081.6 131.457 1077.74 131.457C1073.98 131.457 1070.23 132.397 1066.47 134.277C1062.71 136.16 1058.94 138.55 1055.18 141.452C1055.33 142.549 1055.45 143.821 1055.54 145.271C1055.64 146.723 1055.69 148.163 1055.69 149.592V200.635H1042.26V155.231C1042.26 151.708 1042.11 148.366 1041.8 145.2C1041.49 142.036 1040.83 139.502 1039.84 137.597C1038.74 135.551 1037.17 134.016 1035.12 132.992C1033.08 131.97 1030.13 131.457 1026.27 131.457C1022.61 131.457 1018.93 132.363 1015.24 134.17C1011.55 135.978 1007.88 138.288 1004.21 141.096V200.635H990.791V120.891H1004.21V129.743C1008.4 126.272 1012.58 123.557 1016.74 121.606C1020.91 119.656 1025.34 118.678 1030.06 118.678C1035.48 118.678 1040.08 119.821 1043.87 122.106C1047.65 124.39 1050.47 127.556 1052.33 131.601C1057.76 127.031 1062.71 123.737 1067.18 121.713C1071.65 119.69 1076.43 118.678 1081.53 118.678C1090.28 118.678 1096.75 121.332 1100.91 126.637C1105.08 131.946 1107.16 139.357 1107.16 148.877V200.635" fill="#2765B2"/>
<path d="M1191.69 200.635H1178.27V191.782C1173.75 195.351 1169.42 198.091 1165.28 199.992C1161.14 201.897 1156.57 202.848 1151.57 202.848C1143.2 202.848 1136.68 200.29 1132.01 195.174C1127.35 190.058 1125.02 182.551 1125.02 172.651V120.891H1138.44V166.296C1138.44 170.341 1138.63 173.804 1139.01 176.685C1139.39 179.562 1140.2 182.026 1141.44 184.072C1142.72 186.167 1144.39 187.69 1146.43 188.642C1148.48 189.595 1151.45 190.068 1155.36 190.068C1158.83 190.068 1162.63 189.165 1166.74 187.356C1170.86 185.549 1174.71 183.24 1178.27 180.432V120.891H1191.69V200.635Z" fill="#2765B2"/>
<path d="M1270.06 177.646C1270.06 184.929 1267.05 190.904 1261.03 195.566C1255.01 200.231 1246.79 202.563 1236.37 202.563C1230.47 202.563 1225.05 201.86 1220.13 200.456C1215.2 199.052 1211.07 197.52 1207.74 195.852V180.788H1208.46C1212.69 183.977 1217.4 186.511 1222.59 188.391C1227.78 190.273 1232.75 191.211 1237.51 191.211C1243.41 191.211 1248.03 190.261 1251.36 188.356C1254.69 186.452 1256.36 183.455 1256.36 179.36C1256.36 176.221 1255.45 173.84 1253.65 172.221C1251.84 170.605 1248.36 169.223 1243.22 168.081C1241.32 167.654 1238.83 167.154 1235.76 166.582C1232.69 166.011 1229.89 165.392 1227.37 164.726C1220.38 162.868 1215.42 160.146 1212.49 156.552C1209.56 152.958 1208.1 148.545 1208.1 143.307C1208.1 140.023 1208.77 136.931 1210.13 134.028C1211.49 131.125 1213.55 128.53 1216.31 126.247C1218.97 124.008 1222.36 122.236 1226.48 120.927C1230.6 119.618 1235.2 118.965 1240.29 118.965C1245.05 118.965 1249.87 119.548 1254.75 120.712C1259.63 121.88 1263.69 123.296 1266.92 124.961V139.311H1266.21C1262.78 136.79 1258.62 134.658 1253.72 132.922C1248.81 131.183 1244.01 130.315 1239.29 130.315C1234.39 130.315 1230.25 131.255 1226.87 133.135C1223.49 135.017 1221.8 137.812 1221.8 141.523C1221.8 144.807 1222.83 147.282 1224.87 148.947C1226.87 150.615 1230.11 151.972 1234.58 153.017C1237.06 153.588 1239.83 154.16 1242.9 154.731C1245.97 155.302 1248.53 155.827 1250.57 156.301C1256.81 157.73 1261.62 160.18 1264.99 163.655C1268.37 167.177 1270.06 171.841 1270.06 177.646" fill="#2765B2"/>
<path d="M1382.49 159.8H1343.58V198.708H1331.73V159.8H1292.82V148.376H1331.73V109.47H1343.58V148.376H1382.49V159.8Z" fill="#2765B2"/>
<path d="M324 254.931H642.899V42.3334H324V254.931V254.931Z" fill="#2765B2"/>
<path d="M483.463 65.9547L486.09 74.1597L494.682 74.1234L487.698 79.1497L490.397 87.3184L483.463 82.2297L476.513 87.3234L479.212 79.1497L472.218 74.1234L480.826 74.1597L483.463 65.9547" fill="#F9E419"/>
<path d="M448.03 75.4497L450.657 83.6534L459.25 83.6184L452.266 88.6447L454.963 96.8134L448.03 91.7259L441.081 96.8184L443.78 88.6447L436.785 83.6184L445.393 83.6534L448.03 75.4497" fill="#F9E419"/>
<path d="M422.093 101.388L424.718 109.592L433.312 109.557L426.328 114.582L429.026 122.752L422.092 117.662L415.143 122.758L417.842 114.583L410.847 109.557L419.456 109.593L422.093 101.388" fill="#F9E419"/>
<path d="M412.601 136.822L415.226 145.026L423.819 144.991L416.836 150.015L419.533 158.185L412.599 153.096L405.651 158.191L408.349 150.017L401.354 144.991L409.963 145.027L412.601 136.822" fill="#F9E419"/>
<path d="M422.096 172.253L424.721 180.458L433.315 180.423L426.33 185.447L429.027 193.618L422.093 188.53L415.145 193.625L417.845 185.451L410.848 180.422L419.458 180.46L422.096 172.253" fill="#F9E419"/>
<path d="M448.035 198.192L450.66 206.398L459.253 206.361L452.268 211.386L454.966 219.557L448.032 214.467L441.082 219.562L443.783 211.388L436.787 206.361L445.398 206.398L448.035 198.192" fill="#F9E419"/>
<path d="M483.471 207.683L486.096 215.888L494.69 215.852L487.705 220.877L490.403 229.049L483.468 223.957L476.518 229.053L479.218 220.88L472.225 215.852L480.835 215.888L483.471 207.683" fill="#F9E419"/>
<path d="M518.901 198.19L521.525 206.393L530.12 206.356L523.132 211.381L525.832 219.553L518.898 214.462L511.948 219.557L514.648 211.384L507.653 206.356L516.265 206.393L518.901 198.19Z" fill="#F9E419"/>
<path d="M544.838 172.25L547.461 180.455L556.056 180.418L549.07 185.443L551.77 193.615L544.836 188.525L537.886 193.62L540.586 185.446L533.591 180.418L542.202 180.455L544.838 172.25" fill="#F9E419"/>
<path d="M554.333 136.816L556.956 145.018L565.551 144.985L558.564 150.008L561.264 158.18L554.329 153.09L547.379 158.185L550.081 150.011L543.084 144.985L551.697 145.018L554.333 136.816" fill="#F9E419"/>
<path d="M544.838 101.386L547.461 109.59L556.055 109.556L549.068 114.581L551.77 122.751L544.835 117.661L537.885 122.757L540.586 114.582L533.591 109.553L542.202 109.59L544.838 101.386" fill="#F9E419"/>
<path d="M518.898 75.4496L521.521 83.6521L530.113 83.6184L523.128 88.6434L525.828 96.8134L518.896 91.7234L511.945 96.8196L514.647 88.6447L507.65 83.6171L516.261 83.6521L518.898 75.4496" fill="#F9E419"/>
</svg>
